<?xml version="1.0" encoding="UTF-8" standalone="no"?>
<!-- Generator: Adobe Illustrator 12.0.1, SVG Export Plug-In . SVG Version: 6.00 Build 51448)  -->

<svg
   xmlns:dc="http://purl.org/dc/elements/1.1/"
   xmlns:cc="http://creativecommons.org/ns#"
   xmlns:rdf="http://www.w3.org/1999/02/22-rdf-syntax-ns#"
   xmlns:svg="http://www.w3.org/2000/svg"
   xmlns="http://www.w3.org/2000/svg"
   xmlns:sodipodi="http://sodipodi.sourceforge.net/DTD/sodipodi-0.dtd"
   xmlns:inkscape="http://www.inkscape.org/namespaces/inkscape"
   version="1.0"
   width="55"
   height="55"
   viewBox="0 0 55 55"
   id="svg120"
   xml:space="preserve"
   sodipodi:version="0.32"
   inkscape:version="0.46+devel"
   sodipodi:docname="experiment.svg"
   inkscape:output_extension="org.inkscape.output.svg.inkscape"><metadata
     id="metadata25"><rdf:RDF><cc:Work
         rdf:about=""><dc:format>image/svg+xml</dc:format><dc:type
           rdf:resource="http://purl.org/dc/dcmitype/StillImage" /><dc:title></dc:title></cc:Work></rdf:RDF></metadata><sodipodi:namedview
     pagecolor="#ffffff"
     bordercolor="#666666"
     borderopacity="1"
     objecttolerance="10"
     gridtolerance="10"
     guidetolerance="10"
     inkscape:pageopacity="0"
     inkscape:pageshadow="2"
     inkscape:window-width="1280"
     inkscape:window-height="950"
     id="namedview23"
     showgrid="false"
     inkscape:zoom="12.709091"
     inkscape:cx="27.5"
     inkscape:cy="27.5"
     inkscape:window-x="0"
     inkscape:window-y="25"
     inkscape:current-layer="svg120" /><defs
     id="defs133"><inkscape:perspective
   sodipodi:type="inkscape:persp3d"
   inkscape:vp_x="0 : 27.5 : 1"
   inkscape:vp_y="0 : 1000 : 0"
   inkscape:vp_z="55 : 27.5 : 1"
   inkscape:persp3d-origin="27.5 : 18.333333 : 1"
   id="perspective27" />
	
	<inkscape:perspective
   id="perspective103"
   inkscape:persp3d-origin="0.5 : 0.33333333 : 1"
   inkscape:vp_z="1 : 0.5 : 1"
   inkscape:vp_y="0 : 1000 : 0"
   inkscape:vp_x="0 : 0.5 : 1"
   sodipodi:type="inkscape:persp3d" /><inkscape:perspective
   id="perspective867"
   inkscape:persp3d-origin="0.5 : 0.33333333 : 1"
   inkscape:vp_z="1 : 0.5 : 1"
   inkscape:vp_y="0 : 1000 : 0"
   inkscape:vp_x="0 : 0.5 : 1"
   sodipodi:type="inkscape:persp3d" /><inkscape:perspective
   id="perspective896"
   inkscape:persp3d-origin="0.5 : 0.33333333 : 1"
   inkscape:vp_z="1 : 0.5 : 1"
   inkscape:vp_y="0 : 1000 : 0"
   inkscape:vp_x="0 : 0.5 : 1"
   sodipodi:type="inkscape:persp3d" /><inkscape:perspective
   id="perspective896-6"
   inkscape:persp3d-origin="0.5 : 0.33333333 : 1"
   inkscape:vp_z="1 : 0.5 : 1"
   inkscape:vp_y="0 : 1000 : 0"
   inkscape:vp_x="0 : 0.5 : 1"
   sodipodi:type="inkscape:persp3d" /></defs><path
     style="fill:#ffffff;fill-opacity:1;stroke:#000000;stroke-width:2.5145123;stroke-miterlimit:3.4000001;stroke-opacity:1;stroke-dasharray:none"
     d="M 20.364535,7.9362609 C 19.85929,8.0678112 19.415184,8.2070125 18.996734,8.3349112 18.859164,8.3671424 18.745183,8.4302044 18.610257,8.4644769 17.02087,8.8681695 15.643855,9.3707273 16.274712,9.9464474 18.904299,12.346209 21.245791,22.173565 20.49179,25.228213 20.215658,29.097106 10.056539,46.221551 14.328318,47.265271 18.11448,49.339944 26.246259,46.95328 31.032363,45.764813 36.012064,44.797267 43.306481,42.989049 45.279893,39.92827 48.491317,37.129495 30.700708,26.599095 28.452663,23.322205 26.206916,20.971094 23.169628,11.306926 24.235585,8.0404389 24.54769,7.0840382 22.314568,7.4285304 20.364535,7.9362609 z"
     id="path857"
     sodipodi:nodetypes="cssscccccsc" /><path
     style="stroke:#000000;stroke-width:2.5145123;stroke-miterlimit:3.4000001;stroke-opacity:1;stroke-dasharray:none"
     d="m 19.213453,29.061001 16.072839,0.47492 0,-0.09498"
     id="path882" /><path
     sodipodi:type="arc"
     style="fill:none;stroke:#000000;stroke-width:1.5;stroke-linecap:round;stroke-linejoin:miter;stroke-miterlimit:3.4000001;stroke-opacity:1;stroke-dasharray:none;stroke-dashoffset:0"
     id="path884"
     sodipodi:cx="25.926323"
     sodipodi:cy="34.778255"
     sodipodi:rx="0.98354793"
     sodipodi:ry="1.0228899"
     d="m 26.909871,34.778255 a 0.98354793,1.0228899 0 1 1 -1.967096,0 0.98354793,1.0228899 0 1 1 1.967096,0 z"
     transform="matrix(1.3094306,0,0,1.2071605,-10.768575,-8.267717)" /><path
     transform="matrix(1.3094306,0,0,1.2071605,-1.3412361,-5.6081657)"
     sodipodi:type="arc"
     style="fill:none;stroke:#000000;stroke-width:1.5;stroke-linecap:round;stroke-linejoin:miter;stroke-miterlimit:3.4000001;stroke-opacity:1;stroke-dasharray:none;stroke-dashoffset:0"
     id="path884-3"
     sodipodi:cx="25.926323"
     sodipodi:cy="34.778255"
     sodipodi:rx="0.98354793"
     sodipodi:ry="1.0228899"
     d="m 26.909871,34.778255 a 0.98354793,1.0228899 0 1 1 -1.967096,0 0.98354793,1.0228899 0 1 1 1.967096,0 z" /><path
     transform="matrix(1.3094306,0,0,1.2071605,-9.068563,0.37582722)"
     sodipodi:type="arc"
     style="fill:none;stroke:#000000;stroke-width:1.5;stroke-linecap:round;stroke-linejoin:miter;stroke-miterlimit:3.4000001;stroke-opacity:1;stroke-dasharray:none;stroke-dashoffset:0"
     id="path884-8"
     sodipodi:cx="25.926323"
     sodipodi:cy="34.778255"
     sodipodi:rx="0.98354793"
     sodipodi:ry="1.0228899"
     d="m 26.909871,34.778255 a 0.98354793,1.0228899 0 1 1 -1.967096,0 0.98354793,1.0228899 0 1 1 1.967096,0 z" /></svg>