<?xml version="1.0" encoding="UTF-8" standalone="no"?>
<svg
   xmlns:dc="http://purl.org/dc/elements/1.1/"
   xmlns:cc="http://creativecommons.org/ns#"
   xmlns:rdf="http://www.w3.org/1999/02/22-rdf-syntax-ns#"
   xmlns:svg="http://www.w3.org/2000/svg"
   xmlns="http://www.w3.org/2000/svg"
   xmlns:sodipodi="http://sodipodi.sourceforge.net/DTD/sodipodi-0.dtd"
   xmlns:inkscape="http://www.inkscape.org/namespaces/inkscape"
   version="1.0"
   width="55"
   height="55"
   viewBox="0 0 55 55"
   id="svg2491"
   xml:space="preserve"
   sodipodi:version="0.32"
   inkscape:version="0.46+devel"
   sodipodi:docname="fox.svg"
   inkscape:output_extension="org.inkscape.output.svg.inkscape"><metadata
   id="metadata1051"><rdf:RDF><cc:Work
       rdf:about=""><dc:format>image/svg+xml</dc:format><dc:type
         rdf:resource="http://purl.org/dc/dcmitype/StillImage" /><dc:title></dc:title></cc:Work></rdf:RDF></metadata><sodipodi:namedview
   pagecolor="#ffffff"
   bordercolor="#666666"
   borderopacity="1"
   objecttolerance="10"
   gridtolerance="10"
   guidetolerance="10"
   inkscape:pageopacity="0"
   inkscape:pageshadow="2"
   inkscape:window-width="1280"
   inkscape:window-height="950"
   id="namedview1049"
   showgrid="false"
   inkscape:zoom="12.136524"
   inkscape:cx="25.168604"
   inkscape:cy="27.29188"
   inkscape:window-x="0"
   inkscape:window-y="25"
   inkscape:current-layer="svg2491"
   showguides="true"
   inkscape:guide-bbox="true" />
<defs
   id="defs2511"><inkscape:perspective
   sodipodi:type="inkscape:persp3d"
   inkscape:vp_x="0 : 27.5 : 1"
   inkscape:vp_y="0 : 1000 : 0"
   inkscape:vp_z="55 : 27.5 : 1"
   inkscape:persp3d-origin="27.5 : 18.333333 : 1"
   id="perspective1053" />	<inkscape:perspective
   id="perspective1084"
   inkscape:persp3d-origin="0.5 : 0.33333333 : 1"
   inkscape:vp_z="1 : 0.5 : 1"
   inkscape:vp_y="0 : 1000 : 0"
   inkscape:vp_x="0 : 0.5 : 1"
   sodipodi:type="inkscape:persp3d" /></defs>








<g
   id="g1610"
   transform="matrix(1,0,0,0.9758646,0,1.2849021)"><path
     style="fill:#ffffff;stroke:#010101;stroke-width:3.03687189999999996;stroke-linecap:butt;stroke-linejoin:miter;stroke-miterlimit:4;stroke-opacity:1;stroke-dasharray:none;fill-opacity:1"
     d="m 19.380327,9.2626586 c -0.920604,2.5574124 -0.933591,4.4630874 -3.439597,8.7535994 -2.56545,2.730744 -5.593555,14.020317 5.70973,24.863515 0.71628,0.311558 3.755396,2.852257 4.471476,3.164448 l 0.218873,0.08769 0.400254,-0.128785 c 0.71608,-0.31219 3.789591,-2.852889 4.505872,-3.164447 11.303284,-10.8432 8.27518,-22.091676 5.709729,-24.82242 C 34.450659,13.725746 34.437672,11.820071 33.517068,9.2626586 29.185766,14.988995 28.367034,14.7642 26.431499,15.057295 24.521812,14.772472 23.684938,14.953711 19.380327,9.2626586 z"
     id="path2401"
     sodipodi:nodetypes="ccccccccccc" /></g><path
   sodipodi:type="arc"
   style="fill:#000000;fill-opacity:1;stroke:#000000;stroke-width:1.5;stroke-linecap:round;stroke-linejoin:miter;stroke-miterlimit:3.4000001;stroke-opacity:1;stroke-dasharray:none;stroke-dashoffset:0"
   id="path1098"
   sodipodi:cx="27.891018"
   sodipodi:cy="42.475822"
   sodipodi:rx="1.3595326"
   sodipodi:ry="1.7303143"
   d="m 29.250551,42.475822 a 1.3595326,1.7303143 0 1 1 -2.719066,0 1.3595326,1.7303143 0 1 1 2.719066,0 z"
   transform="matrix(1.1006708,0,0,1.2523804,-4.2501318,-6.3439597)" /><g
   id="g2258"
   transform="translate(0.5366614,0)"><path
     style="fill:#010101;stroke-width:3.20000005;stroke-linecap:round;stroke-miterlimit:4;stroke-dasharray:none"
     id="path3185"
     d="m 23.4774,29.476396 a 1.7108255,2.4707289 0 0 1 -3.42165,0 1.7108255,2.4707289 0 1 1 3.42165,0 z" /><path
     style="fill:#010101;stroke-width:3.20000005;stroke-linecap:round;stroke-miterlimit:4;stroke-dasharray:none"
     id="path3187"
     d="m 31.768322,29.701007 a 1.7108257,2.4707293 0 0 1 -3.421651,0 1.7108257,2.4707293 0 1 1 3.421651,0 z" /></g></svg>