<?xml version="1.0" encoding="UTF-8" standalone="no"?>
<svg
   xmlns:dc="http://purl.org/dc/elements/1.1/"
   xmlns:cc="http://creativecommons.org/ns#"
   xmlns:rdf="http://www.w3.org/1999/02/22-rdf-syntax-ns#"
   xmlns:svg="http://www.w3.org/2000/svg"
   xmlns="http://www.w3.org/2000/svg"
   xmlns:sodipodi="http://sodipodi.sourceforge.net/DTD/sodipodi-0.dtd"
   xmlns:inkscape="http://www.inkscape.org/namespaces/inkscape"
   version="1.0"
   width="55"
   height="55"
   viewBox="0 0 55 55"
   id="svg2491"
   xml:space="preserve"
   sodipodi:version="0.32"
   inkscape:version="0.46+devel"
   sodipodi:docname="rabbit.svg"
   inkscape:output_extension="org.inkscape.output.svg.inkscape"><metadata
   id="metadata1051"><rdf:RDF><cc:Work
       rdf:about=""><dc:format>image/svg+xml</dc:format><dc:type
         rdf:resource="http://purl.org/dc/dcmitype/StillImage" /><dc:title /></cc:Work></rdf:RDF></metadata><sodipodi:namedview
   pagecolor="#ffffff"
   bordercolor="#666666"
   borderopacity="1"
   objecttolerance="10"
   gridtolerance="10"
   guidetolerance="10"
   inkscape:pageopacity="0"
   inkscape:pageshadow="2"
   inkscape:window-width="1280"
   inkscape:window-height="950"
   id="namedview1049"
   showgrid="false"
   inkscape:zoom="12.709091"
   inkscape:cx="27.5"
   inkscape:cy="27.5"
   inkscape:window-x="0"
   inkscape:window-y="25"
   inkscape:current-layer="svg2491" />
<defs
   id="defs2511"><inkscape:perspective
   sodipodi:type="inkscape:persp3d"
   inkscape:vp_x="0 : 27.5 : 1"
   inkscape:vp_y="0 : 1000 : 0"
   inkscape:vp_z="55 : 27.5 : 1"
   inkscape:persp3d-origin="27.5 : 18.333333 : 1"
   id="perspective1053" />	</defs>



<path
   style="fill:#ffffff;stroke:#010101;stroke-width:3;stroke-linecap:butt;stroke-linejoin:miter;stroke-miterlimit:4;stroke-opacity:1;stroke-dasharray:none;fill-opacity:1"
   d="m 15.532716,7.7954984 c -1.558417,0.1013123 -3.257785,0.9674439 -4.997942,3.0263756 2.198245,-0.09424 8.427941,4.136096 9.528785,6.00889 -12.6667332,0.805494 -16.1129323,21.341247 3.45652,29.781288 0.402526,0.141002 1.015668,0.439692 1.634841,0.745629 l 1.646536,0.412754 0.735661,-0.149591 c 0.602209,-0.166706 1.195572,-0.344955 1.58813,-0.482465 19.569452,-8.440041 16.870609,-29.282819 4.203876,-30.088313 1.100844,-1.872793 7.33054,-6.103127 9.528786,-6.00889 C 35.788142,2.6763169 29.801125,13.632251 26.462792,16.479879 23.989008,14.148804 20.207961,7.4915711 15.532716,7.7954984 z"
   id="path2401"
   sodipodi:nodetypes="cccccccccccc" />

<path
   d="m 23.35558,25.753517 a 2.3233019,2.7689337 0 0 1 -4.646604,0 2.3233019,2.7689337 0 1 1 4.646604,0 z"
   id="path3185"
   style="fill:#010101;stroke-width:3.20000005;stroke-linecap:round;stroke-miterlimit:4;stroke-dasharray:none" />
<path
   d="m 34.614656,26.005239 a 2.3233018,2.7689335 0 0 1 -4.646603,0 2.3233018,2.7689335 0 1 1 4.646603,0 z"
   id="path3187"
   style="fill:#010101;stroke-width:3.20000005;stroke-linecap:round;stroke-miterlimit:4;stroke-dasharray:none" />
<path
   d="M 20.853565,38.591297 C 25.48208,36.468587 28.50298,35.433213 32.827501,33.38906"
   id="path3189"
   style="fill:none;stroke:#010101;stroke-width:3.18649483;stroke-linecap:round;stroke-linejoin:miter;stroke-miterlimit:4;stroke-opacity:1;stroke-dasharray:none" />
<path
   d="m 20.942921,33.640784 c 4.628515,2.12271 7.649415,3.158082 11.973936,5.202235"
   id="path3195"
   style="fill:none;stroke:#010101;stroke-width:3.18649483;stroke-linecap:round;stroke-linejoin:miter;stroke-miterlimit:4;stroke-opacity:1;stroke-dasharray:none" /></svg>